HIERARCHY
ROOT Joint1
{
	OFFSET 0.000000 0.000000 0.000000
	CHANNELS 6 Xposition Yposition Zposition Xrotation Yrotation Zrotation
	JOINT Joint2
	{
		OFFSET -0.000000 0.000000 1.456275
		CHANNELS 6 Xposition Yposition Zposition Xrotation Yrotation Zrotation
		JOINT Joint3
		{
			OFFSET -0.000000 0.000002 1.471446
			CHANNELS 6 Xposition Yposition Zposition Xrotation Yrotation Zrotation
			JOINT Joint4
			{
				OFFSET 0.625745 0.000000 0.917755
				CHANNELS 6 Xposition Yposition Zposition Xrotation Yrotation Zrotation
				JOINT Joint5
				{
					OFFSET -0.629534 0.000001 0.940221
					CHANNELS 6 Xposition Yposition Zposition Xrotation Yrotation Zrotation
					JOINT Joint6
					{
						OFFSET -0.000001 0.113772 1.960660
						CHANNELS 6 Xposition Yposition Zposition Xrotation Yrotation Zrotation
						JOINT Joint7
						{
							OFFSET -0.669733 -0.113771 0.388340
							CHANNELS 6 Xposition Yposition Zposition Xrotation Yrotation Zrotation
							End Site
							{
								OFFSET 0.005509 0.005509 0.438980
							}
						}
					}
				}
			}
		}
	}
}
MOTION
Frames: 24
Frame Time: 0.041667
0.000000 0.000000 0.000000 -0.000000 1.019410 -14.192903 -0.000000 -0.000000 1.456275 0.000001 -44.954953 0.000001 -0.000000 0.000002 1.471446 -0.000003 -1.133456 61.322244 0.625745 0.000000 0.917755 0.000071 92.560640 -0.000041 -0.629534 0.000001 0.940220 -0.000000 1.709735 -17.900973 -0.000001 0.113772 1.960660 -88.303868 109.042761 0.000002 -0.669733 -0.113771 0.388340 -0.324677 3.492276 113.006334 
0.000000 0.000000 0.000000 -0.000000 1.019410 -13.680807 -0.000000 0.000000 1.456275 0.000000 -44.956015 0.000001 -0.000000 0.000002 1.471446 -0.000001 -1.133453 59.107938 0.625745 0.000000 0.917754 0.000021 94.093075 -0.000038 -0.629534 0.000001 0.940221 -0.000000 1.709735 -17.255343 -0.000001 0.113773 1.960661 -88.303882 108.354374 0.000002 -0.669733 -0.113771 0.388340 -0.337758 3.497448 113.798922 
0.000000 0.000000 0.000000 -0.000000 1.019410 -13.203552 -0.000000 -0.000000 1.456275 -0.000001 -44.957012 0.000001 -0.000000 0.000002 1.471445 -0.000003 -1.133453 57.044295 0.625745 0.000000 0.917755 0.000006 95.521234 -0.000028 -0.629534 0.000001 0.940221 -0.000000 1.709734 -16.653637 -0.000001 0.113773 1.960660 -88.303875 107.712841 0.000002 -0.669733 -0.113771 0.388341 -0.350024 3.502105 114.537601 
0.000000 0.000000 0.000000 -0.000000 1.019410 -12.810583 -0.000000 -0.000000 1.456275 0.000000 -44.957832 0.000000 -0.000000 0.000002 1.471446 -0.000002 -1.133455 55.345098 0.625745 0.000001 0.917755 0.000005 96.697181 -0.000038 -0.629535 0.000001 0.940221 -0.000001 1.709737 -16.158192 -0.000001 0.113772 1.960661 -88.303875 107.184608 0.000019 -0.669733 -0.113771 0.388340 -0.360164 3.505819 115.145829 
0.000000 0.000000 0.000000 -0.000000 1.019410 -12.469999 -0.000000 0.000000 1.456275 -0.000000 -44.958535 0.000001 -0.000000 0.000002 1.471446 -0.000001 -1.133457 53.872407 0.625745 0.000000 0.917755 0.000030 97.716388 -0.000007 -0.629534 0.000001 0.940221 -0.000000 1.709734 -15.728795 -0.000001 0.113772 1.960660 -88.303875 106.726781 0.000002 -0.669733 -0.113771 0.388340 -0.368989 3.508957 115.672969 
0.000000 0.000000 0.000000 -0.000000 1.019410 -12.129561 -0.000000 -0.000000 1.456275 -0.000000 -44.959246 0.000000 -0.000001 0.000002 1.471446 -0.000001 -1.133457 52.400364 0.625745 0.000000 0.917755 -0.000013 98.735125 -0.000012 -0.629534 0.000001 0.940221 0.000001 1.709735 -15.299579 -0.000001 0.113773 1.960661 -88.303882 106.269144 0.000005 -0.669733 -0.113771 0.388340 -0.377839 3.512009 116.199891 
0.000000 0.000000 0.000000 -0.000000 1.019410 -11.737039 -0.000000 -0.000000 1.456275 0.000000 -44.960062 -0.000001 -0.000000 0.000002 1.471446 -0.000001 -1.133459 50.703086 0.625745 0.000000 0.917755 0.000009 99.909740 -0.000006 -0.629534 0.000001 0.940221 0.000001 1.709734 -14.804701 -0.000002 0.113772 1.960661 -88.303875 105.741505 0.000012 -0.669733 -0.113771 0.388340 -0.388065 3.515424 116.807436 
0.000000 0.000000 0.000000 -0.000000 1.019410 -11.260415 -0.000000 -0.000000 1.456275 -0.000000 -44.961052 0.000000 -0.000000 0.000002 1.471446 -0.000001 -1.133452 48.642152 0.625745 0.000000 0.917755 -0.000001 101.336033 -0.000009 -0.629534 0.000001 0.940221 0.000001 1.709737 -14.203786 -0.000001 0.113772 1.960660 -88.303882 105.100806 -0.000001 -0.669733 -0.113771 0.388340 -0.400547 3.519427 117.545151 
0.000000 0.000000 0.000000 -0.000000 1.019410 -10.748547 -0.000000 -0.000000 1.456275 0.000000 -44.962114 0.000001 -0.000000 0.000002 1.471446 -0.000002 -1.133451 46.428846 0.625745 0.000000 0.917755 0.000014 102.867772 -0.000004 -0.629534 0.000001 0.940221 0.000001 1.709736 -13.558443 -0.000000 0.113772 1.960660 -88.303889 104.412740 -0.000001 -0.669733 -0.113771 0.388340 -0.413992 3.523545 118.337426 
0.000000 0.000000 0.000000 -0.000000 1.019410 -10.270524 -0.000000 0.000000 1.456275 -0.000001 -44.963108 0.000000 -0.000000 0.000002 1.471446 -0.000001 -1.133458 44.361881 0.625744 0.000000 0.917755 0.000013 104.298239 -0.000000 -0.629533 0.000001 0.940220 0.000001 1.709738 -12.955773 -0.000001 0.113772 1.960660 -88.303862 103.770169 0.000013 -0.669734 -0.113771 0.388340 -0.426605 3.527225 119.077327 
0.000000 0.000000 0.000000 -0.000000 1.019410 -9.875514 -0.000000 -0.000000 1.456275 0.000000 -44.963931 0.000001 -0.000000 0.000002 1.471446 -0.000002 -1.133451 42.653862 0.625745 0.000000 0.917755 0.000006 105.480305 -0.000010 -0.629534 0.000001 0.940221 -0.000001 1.709736 -12.457757 -0.000000 0.113772 1.960660 -88.303868 103.239184 -0.000005 -0.669733 -0.113771 0.388340 -0.437071 3.530146 119.688711 
0.000000 0.000000 0.000000 -0.000000 1.019410 -9.533027 -0.000000 -0.000000 1.456275 0.000000 -44.964648 -0.000000 -0.000001 0.000002 1.471446 -0.000000 -1.133457 41.172940 0.625745 0.000000 0.917755 0.000002 106.505175 -0.000006 -0.629534 0.000001 0.940221 -0.000001 1.709735 -12.025958 -0.000001 0.113773 1.960661 -88.303848 102.778801 -0.000009 -0.669733 -0.113771 0.388340 -0.446160 3.532585 120.218829 
0.000000 0.000000 0.000000 -0.000000 1.019410 -9.192659 -0.000000 0.000000 1.456275 -0.000001 -44.965355 0.000000 -0.000000 0.000002 1.471446 -0.000001 -1.133452 39.701199 0.625745 0.000000 0.917755 0.000005 107.523713 -0.000003 -0.629533 0.000001 0.940221 0.000002 1.709736 -11.596835 -0.000001 0.113772 1.960661 -88.303868 102.321261 0.000015 -0.669734 -0.113771 0.388340 -0.455225 3.534936 120.745669 
0.000000 0.000000 0.000000 -0.000000 1.019410 -8.804009 -0.000000 0.000000 1.456275 0.000000 -44.966158 0.000000 -0.000000 0.000002 1.471446 -0.000001 -1.133455 38.020671 0.625745 0.000000 0.917755 -0.000003 108.686744 -0.000011 -0.629534 0.000001 0.940221 -0.000002 1.709735 -11.106840 -0.000001 0.113772 1.960660 -88.303855 101.798833 0.000007 -0.669733 -0.113771 0.388339 -0.465591 3.537495 121.347231 
0.000000 0.000000 0.000000 -0.000000 1.019410 -8.334937 -0.000000 0.000000 1.456275 0.000001 -44.967138 0.000000 -0.000000 0.000002 1.471446 -0.000000 -1.133459 35.992413 0.625745 0.000000 0.917755 0.000007 110.090430 -0.000005 -0.629534 0.000001 0.940221 -0.000002 1.709734 -10.515452 -0.000001 0.113772 1.960661 -88.303868 101.168291 0.000025 -0.669734 -0.113771 0.388340 -0.478145 3.540455 122.073266 
0.000000 0.000000 0.000000 -0.000000 1.019410 -7.826370 -0.000000 0.000000 1.456275 -0.000000 -44.968196 -0.000001 -0.000000 0.000002 1.471446 0.000000 -1.133453 33.793358 0.625745 0.000000 0.917755 0.000009 111.612306 0.000002 -0.629534 0.000001 0.940220 0.000000 1.709738 -9.874264 -0.000001 0.113772 1.960661 -88.303875 100.484664 -0.000001 -0.669733 -0.113771 0.388340 -0.491789 3.543486 122.860459 
0.000000 0.000000 0.000000 -0.000000 1.019410 -7.337494 -0.000000 0.000000 1.456275 -0.000000 -44.969207 0.000000 -0.000000 0.000002 1.471446 -0.000001 -1.133457 31.679459 0.625745 0.000000 0.917755 0.000005 113.075243 -0.000000 -0.629534 0.000001 0.940221 0.000001 1.709735 -9.257906 -0.000001 0.113772 1.960660 -88.303875 99.827504 0.000024 -0.669733 -0.113771 0.388339 -0.504952 3.546223 123.617162 
0.000000 0.000000 0.000000 -0.000000 1.019410 -6.913568 -0.000000 -0.000000 1.456275 -0.000000 -44.970092 0.000001 -0.000000 0.000002 1.471445 -0.000001 -1.133458 29.846410 0.625745 0.000001 0.917755 0.000007 114.343842 -0.000002 -0.629534 0.000001 0.940221 0.000003 1.709737 -8.723439 -0.000001 0.113772 1.960660 -88.303868 99.257648 0.000015 -0.669733 -0.113771 0.388339 -0.516390 3.548451 124.273339 
0.000000 0.000000 0.000000 -0.000000 1.019410 -6.544114 -0.000000 -0.000000 1.456275 -0.000000 -44.970860 0.000000 -0.000000 0.000002 1.471446 -0.000000 -1.133460 28.248894 0.625745 0.000000 0.917755 0.000006 115.449417 -0.000008 -0.629534 0.000001 0.940221 -0.000002 1.709735 -8.257647 -0.000001 0.113772 1.960660 -88.303868 98.761018 0.000016 -0.669733 -0.113771 0.388341 -0.526380 3.550286 124.845203 
0.000000 0.000000 0.000000 -0.000000 1.019410 -6.204721 -0.000000 -0.000000 1.456275 -0.000000 -44.971571 0.000000 -0.000000 0.000002 1.471446 -0.000001 -1.133455 26.781358 0.625745 0.000000 0.917755 0.000010 116.465025 -0.000000 -0.629533 0.000001 0.940221 -0.000002 1.709735 -7.829750 -0.000000 0.113772 1.960660 -88.303862 98.304802 0.000008 -0.669733 -0.113771 0.388341 -0.535575 3.551882 125.370554 
0.000000 0.000000 0.000000 -0.000000 1.019410 -5.870979 -0.000000 0.000000 1.456275 -0.000000 -44.972264 0.000000 -0.000000 0.000002 1.471446 -0.000000 -1.133453 25.338257 0.625745 0.000000 0.917755 0.000009 117.463749 -0.000000 -0.629533 0.000001 0.940221 0.000000 1.709738 -7.408976 -0.000001 0.113772 1.960660 -88.303862 97.856161 0.000008 -0.669733 -0.113771 0.388340 -0.544628 3.553374 125.887135 
0.000000 0.000000 0.000000 -0.000000 1.019410 -5.523164 -0.000000 0.000000 1.456275 -0.000000 -44.972984 0.000000 -0.000000 0.000002 1.471446 -0.000001 -1.133453 23.834305 0.625745 0.000000 0.917756 0.000006 118.504574 -0.000004 -0.629534 0.000001 0.940221 -0.000001 1.709735 -6.970467 -0.000001 0.113772 1.960661 -88.303827 97.388614 -0.000005 -0.669733 -0.113771 0.388341 -0.554073 3.554847 126.425504 
0.000000 0.000000 0.000000 -0.000000 1.019410 -5.160319 -0.000000 0.000000 1.456275 0.000000 -44.973743 0.000000 -0.000000 0.000002 1.471446 0.000000 -1.133459 22.265365 0.625744 0.000000 0.917755 0.000004 119.590383 -0.000002 -0.629534 0.000001 0.940221 -0.000000 1.709738 -6.513003 -0.000001 0.113772 1.960661 -88.303848 96.900877 0.000016 -0.669733 -0.113771 0.388340 -0.563943 3.556282 126.987150 
0.000000 0.000000 0.000000 -0.000000 1.019410 -4.786176 -0.000000 -0.000000 1.456275 0.000000 -44.974518 0.000000 -0.000000 0.000002 1.471446 -0.000000 -1.133457 20.647566 0.625745 0.000000 0.917755 0.000008 120.710002 -0.000003 -0.629534 0.000001 0.940221 0.000001 1.709736 -6.041295 -0.000001 0.113772 1.960660 -88.303855 96.397943 0.000029 -0.669733 -0.113771 0.388340 -0.574140 3.557659 127.566268 
